<svg id="seating-chart" width="100%" height="574px" viewBox="0 0 939 574" version="1.1" xmlns="http://www.w3.org/2000/svg" xmlns:xlink="http://www.w3.org/1999/xlink">

    <g stroke="none" stroke-width="1" fill="none" fill-rule="evenodd">
        <g transform="translate(0.000000, -3.000000)">
            <g transform="translate(0.000000, 180.000000)">
                <g class="stage">
                    <path d="M79.2,66.1 L48.3,5.5 C47.2,3.3 44.5,0.9 42,0.9 L5,0.9 C2.5,0.9 0,3.5 0,6 L0,234 C0,236.5 1.5,238.9 4,238.9 L42,238.9 C44.5,238.9 47.1,236.7 48.2,234.4 L80,166.1 C81.1,163.8 82,159.5 82,157 L82,74 C82,71.5 80.4,68.4 79.2,66.1 L79.2,66.1 Z"></path>
                </g>
                <text class="stage-text" fill="#000000" transform="translate(34.000300, 115.987800) rotate(-90.000000) translate(-34.000300, -115.987800) " fontFamily="Helvetica" fontSize="12" fontWeight="normal">
                    <tspan x="14.0003" y="119.9878">STAGE</tspan>
                </text>
            </g>
            <g id="ORCH21" transform="translate(102.000000, 23.000000)">
                <path d="M4.8,70 C3.6,70 -0.2,70.3 0.9,69.4 L23,11.7 C25,10.2 28.7,8.6 31.1,8.1 L65.7,0.9 C68.1,0.4 72.2,3.55271368e-15 74.7,3.55271368e-15 L186.7,3.55271368e-15 C190.1,3.55271368e-15 192.5,1.8 193.7,4 L213.4,66.1 C214.2,68.7 213.4,70 210.9,70 L4.8,70 L4.8,70 Z" class="g"></path>
                <g transform="translate(92.171800, 21.436100)" >
                    <text textAnchor="middle" class="t">
                        <tspan x="15" y="11"></tspan>
                    </text>
                    <text textAnchor="middle" class="t">
                        <tspan x="15" y="25.4"></tspan>
                    </text>
                </g>
            </g>
            <g id="ORCH11" transform="translate(305.000000, 23.000000)">
                <g class="g">
                    <path d="M137.2,65.8 L117.4,4.2 C116.9,1.7 114.7,0.1 112.2,0.1 L3.9,0.1 C1.2,0.1 0.2,2.7 0.9,6.1 L20.2,66.4 C21.5,68.6 23.1,70.1 25.6,70.1 L132.9,70.1 C135.4,70 137.7,68.2 137.2,65.8 L137.2,65.8 Z"></path>
                </g>
                <g transform="translate(50.006300, 21.436200)" >
                    <text textAnchor="middle" class="t">
                        <tspan x="15" y="11"></tspan>
                    </text>
                    <text textAnchor="middle" class="t">
                        <tspan x="15" y="25.4"></tspan>
                    </text>
                </g>
            </g>
            <g id="ORCH32" transform="translate(102, 102)" >
                <g class="g">
                    <path d="M114.1,66.3 L94.3,4.7 C93.4,2.6 91.6,0.6 89.1,0.6 L6.6,0.6 C3.9,0.6 0.7,2.3 0.8,6.6 L1.1,65.3 C1.1,68.5 3.2,70.6 7.8,70.6 L109.7,70.6 C112.3,70.5 114.6,68.7 114.1,66.3 L114.1,66.3 Z"></path>
                </g>
                <g transform="translate(40, 22)">
                    <text textAnchor="middle" class="t">
                        <tspan x="15" y="11"></tspan>
                    </text>
                    <text textAnchor="middle" class="t">
                        <tspan x="15" y="25.4"></tspan>
                    </text>
                </g>
            </g>
            <g id="ORCH22" transform="translate(204.000000, 102.000000)">
                <g class="g">
                    <path d="M136.7,66.3 L117,4.6 C116.5,2.1 114.3,0.5 111.8,0.5 L3.5,0.5 C0.8,0.5 -0.2,3.1 0.5,6.5 L19.8,66.8 C21.1,69 22.7,70.5 25.2,70.5 L132.5,70.5 C134.9,70.5 137.2,68.7 136.7,66.3 L136.7,66.3 Z"></path>
                </g>
                <g transform="translate(48.700000, 21.153900)" >
                    <text textAnchor="middle" class="t">
                        <tspan x="15" y="11"></tspan>
                    </text>
                    <text textAnchor="middle" class="t">
                        <tspan x="15" y="25.4"></tspan>
                    </text>
                </g>
            </g>
            <g id="ORCH12" transform="translate(331.000000, 102.000000)">
                <g class="g">
                    <path d="M136.7,66.3 L116.9,4.7 C116.4,2.2 114.2,0.6 111.7,0.6 L3.4,0.6 C0.7,0.6 -0.3,3.2 0.4,6.6 L19.7,66.9 C21,69.1 22.6,70.6 25.1,70.6 L132.4,70.6 C134.8,70.5 137.1,68.7 136.7,66.3 L136.7,66.3 Z"></path>
                </g>
                <g transform="translate(48.360500, 21.154200)" >
                    <text textAnchor="middle" class="t">
                        <tspan x="15" y="11"></tspan>
                    </text>
                    <text textAnchor="middle" class="t">
                        <tspan x="15" y="25.4"></tspan>
                    </text>
                </g>
            </g>
            <g id="ORCH33" transform="translate(105.000000, 182.000000)">
                <g id="Shape_3_copy_63_" class="g">
                    <path d="M133.2,65.8 L113.4,4.2 C112.9,1.7 110.7,0.1 108.2,0.1 L3.9,0.1 C1.2,0.1 0.2,2.7 0.9,6.1 L20.2,66.4 C21.5,68.6 23.1,70.1 25.6,70.1 L128.9,70.1 C131.4,70 133.7,68.2 133.2,65.8 L133.2,65.8 Z"></path>
                </g>
                <g transform="translate(47.082900, 20.587800)" >
                    <text textAnchor="middle" class="t">
                        <tspan x="15" y="11"></tspan>
                    </text>
                    <text textAnchor="middle" class="t">
                        <tspan x="15" y="25.4"></tspan>
                    </text>
                </g>
            </g>
            <g id="ORCH23" transform="translate(229.000000, 182.000000)">
                <g id="Shape_3_copy_119_" class="g">
                    <path d="M136.7,65.8 L117,4.1 C116.5,1.6 114.3,0 111.8,0 L3.5,0 C0.8,0 -0.2,2.6 0.5,6 L19.8,66.3 C21.1,68.5 22.7,70 25.2,70 L132.5,70 C134.9,70 137.2,68.2 136.7,65.8 L136.7,65.8 Z"></path>
                </g>
                <g transform="translate(52.033300, 20.587800)" >
                    <text textAnchor="middle" class="t">
                        <tspan x="15" y="11"></tspan>
                    </text>
                    <text textAnchor="middle" class="t">
                        <tspan x="15" y="25.4"></tspan>
                    </text>
                </g>
            </g>
            <g id="ORCH13" transform="translate(356.000000, 182.000000)">
                <g id="Shape_3_copy_42_" class="g">
                    <path d="M136.7,65.8 L117,4.1 C116.5,1.6 114.3,0 111.8,0 L3.5,0 C0.8,0 -0.2,2.6 0.5,6 L19.8,66.3 C21.1,68.5 22.7,70 25.2,70 L132.5,70 C134.9,70 137.2,68.2 136.7,65.8 L136.7,65.8 Z"></path>
                </g>
                <g transform="translate(49.506500, 20.588100)" >
                    <text textAnchor="middle" class="t">
                        <tspan x="15" y="11"></tspan>
                    </text>
                    <text textAnchor="middle" class="t">
                        <tspan x="15" y="25.4"></tspan>
                    </text>
                </g>
            </g>
            <g id="ORCH34" transform="translate(128.000000, 263.000000)">
                <path d="M5,70 C2.5,70 0,67.5 0,65 L0,5 C0,2.5 1.5,0 4,0 L110,0 C112.5,0 115,2.5 115,5 L115,65 C115,67.5 112.5,70 110,70 L5,70 L5,70 Z" class="g"></path>
                <g transform="translate(37.506500, 20.829000)" >
                    <text textAnchor="middle" class="t">
                        <tspan x="15" y="11"></tspan>
                    </text>
                    <text textAnchor="middle" class="t">
                        <tspan x="15" y="25.4"></tspan>
                    </text>
                </g>
            </g>
            <g id="ORCH14" transform="translate(380.000000, 263.000000)">
                <path d="M4,70 C1.5,70 0,67.5 0,65 L0,5 C0,2.5 2.5,0 5,0 L112,0 C114.5,0 117,2.5 117,5 L117,65 C117,67.5 114.5,70 112,70 L4,70 L4,70 Z" class="g"></path>
                <g transform="translate(38.757000, 20.828900)" >
                    <text textAnchor="middle" class="t">
                        <tspan x="15" y="11"></tspan>
                    </text>
                    <text textAnchor="middle" class="t">
                        <tspan x="15" y="25.4"></tspan>
                    </text>
                </g>
            </g>
            <g id="ORCH24" transform="translate(253.000000, 263.000000)">
                <path d="M4,69.9 C1.5,69.9 0,67.4 0,64.9 L0,5 C0,2.5 2.5,0 5,0 L112,0 C114.5,0 117,2.5 117,5 L117,64.9 C117,67.4 114.5,69.9 112,69.9 L4,69.9 L4,69.9 Z" class="g"></path>
                <g transform="translate(36.049700, 20.829000)" >
                    <text textAnchor="middle" class="t">
                        <tspan x="15" y="11"></tspan>
                    </text>
                    <text textAnchor="middle" class="t">
                        <tspan x="15" y="25.4"></tspan>
                    </text>
                </g>
            </g>
            <g id="ORCH35" transform="translate(100.000000, 102.000000)">
                <g id="Shape_3_copy_2_" transform="translate(5.000000, 243.000000)" class="g">
                    <path d="M132.9,0 L25.6,0 C23.1,0 21.5,1.5 20.2,3.7 L0.9,64 C0.2,67.4 1.2,70 3.9,70 L112.2,70 C114.7,70 116.9,68.3 117.4,65.9 L137.2,4.3 C137.7,1.8 135.4,0 132.9,0 L132.9,0 Z"></path>
                </g>

                <g transform="translate(51.366600, 264.906400)" >
                    <text textAnchor="middle" class="t">
                        <tspan x="15" y="11"></tspan>
                    </text>
                    <text textAnchor="middle" class="t">
                        <tspan x="15" y="25.4"></tspan>
                    </text>
                </g>
            </g>
            <g id="ORCH25" transform="translate(233.000000, 345.000000)">
                <g class="g">
                    <path d="M132.4,0 L25.1,0 C22.6,0 21,1.5 19.7,3.7 L0.5,64 C-0.2,67.4 0.8,70 3.5,70 L111.8,70 C114.3,70 116.5,68.3 117,65.9 L136.8,4.3 C137.2,1.8 134.9,0 132.4,0 L132.4,0 Z"></path>
                </g>
                <g transform="translate(43.033300, 21.906300)" >
                    <text textAnchor="middle" class="t">
                        <tspan x="15" y="11"></tspan>
                    </text>
                    <text textAnchor="middle" class="t">
                        <tspan x="15" y="25.4"></tspan>
                    </text>
                </g>
            </g>
            <g id="ORCH15" transform="translate(360.000000, 345.000000)">
                <g class="g">
                    <path d="M132.4,0 L25.1,0 C22.6,0 21,1.5 19.7,3.7 L0.5,64 C-0.2,67.4 0.8,70 3.5,70 L111.8,70 C114.3,70 116.5,68.3 117,65.9 L136.8,4.3 C137.2,1.8 134.9,0 132.4,0 L132.4,0 Z"></path>
                </g>
                <g transform="translate(44.496500, 21.906300)" >
                    <text textAnchor="middle" class="t">
                        <tspan x="15" y="11"></tspan>
                    </text>
                    <text textAnchor="middle" class="t">
                        <tspan x="15" y="25.4"></tspan>
                    </text>
                </g>
            </g>
            <g id="ORCH36" transform="translate(100.000000, 425.000000)">
                <g class="g">
                    <path d="M113.8,0.5 L7.8,0.5 C3.2,0.5 1.1,2.6 1.1,5.8 L0.8,65.5 C0.7,69.8 3.9,71.5 6.6,71.5 L93.1,71.5 C95.6,71.5 97.4,69.4 98.3,67.4 L118.1,4.8 C118.6,2.3 116.3,0.5 113.8,0.5 L113.8,0.5 Z"></path>
                </g>
                <g transform="translate(28.509600, 22.779400)" >
                    <text textAnchor="middle" class="t">
                        <tspan x="15" y="11"></tspan>
                    </text>
                    <text textAnchor="middle" class="t">
                        <tspan x="15" y="25.4"></tspan>
                    </text>
                </g>
            </g>
            <g id="ORCH26" transform="translate(209.000000, 425.000000)">
                <g class="g">
                    <path d="M132.4,0.5 L25.1,0.5 C22.6,0.5 21,2 19.7,4.2 L0.4,65.5 C-0.3,68.9 0.7,71.5 3.4,71.5 L111.7,71.5 C114.2,71.5 116.4,69.8 116.9,67.4 L136.7,4.8 C137.2,2.3 134.9,0.5 132.4,0.5 L132.4,0.5 Z"></path>
                </g>
                <g transform="translate(42.533100, 22.779400)" >
                    <text textAnchor="middle" class="t">
                        <tspan x="15" y="11"></tspan>
                    </text>
                    <text textAnchor="middle" class="t">
                        <tspan x="15" y="25.4"></tspan>
                    </text>
                </g>
            </g>
            <g id="ORCH16" transform="translate(337.000000, 425.000000)">
                <g id="Shape_3_copy_103_" class="g">
                    <path d="M132.3,0.5 L25,0.5 C22.5,0.5 20.9,2 19.6,4.2 L0.3,65.5 C-0.4,68.9 0.6,71.5 3.3,71.5 L111.6,71.5 C114.1,71.5 116.3,69.8 116.8,67.4 L136.6,4.8 C137.1,2.3 134.8,0.5 132.3,0.5 L132.3,0.5 Z"></path>
                </g>
                <g transform="translate(43.007400, 22.779100)" >
                    <text textAnchor="middle" class="t">
                        <tspan x="15" y="11"></tspan>
                    </text>
                    <text textAnchor="middle" class="t">
                        <tspan x="15" y="25.4"></tspan>
                    </text>
                </g>
            </g>
            <g id="ORCH27" transform="translate(102.000000, 506.000000)">
                <path d="M4.8,0.5 C3.6,0.5 -0.2,0.2 0.9,1.1 L22.8,58.8 C24.8,60.3 28.5,61.9 30.9,62.4 L65.5,69.6 C67.9,70.1 72,70.5 74.5,70.5 L191.5,70.5 C194.9,70.5 197.3,68.7 198.5,66.5 L218.3,4.4 C219.5,2.2 218.3,0.5 215.8,0.5 L4.8,0.5 L4.8,0.5 Z" class="g"></path>
                <g transform="translate(92.423000, 23.482400)" >
                    <text textAnchor="middle" class="t">
                        <tspan x="15" y="11"></tspan>
                    </text>
                    <text textAnchor="middle" class="t">
                        <tspan x="15" y="25.4"></tspan>
                    </text>
                </g>
            </g>
            <g id="ORCH17" transform="translate(311.000000, 506.000000)">
                <g class="g">
                    <path d="M132.9,0.5 L25.6,0.5 C23.1,0.5 21.5,2 20.2,4.2 L0.9,64.5 C0.2,67.9 1.2,70.5 3.9,70.5 L112.2,70.5 C114.7,70.5 116.9,68.8 117.4,66.4 L137.2,4.8 C137.7,2.3 135.4,0.5 132.9,0.5 L132.9,0.5 Z"></path>
                </g>
                <g transform="translate(44.006600, 23.482400)" >
                    <text textAnchor="middle" class="t">
                        <tspan x="15" y="11"></tspan>
                    </text>
                    <text textAnchor="middle" class="t">
                        <tspan x="15" y="25.4"></tspan>
                    </text>
                </g>
            </g>
            <g id="1STMZ17" transform="translate(477.000000, 506.000000)">
                <g class="g">
                    <path d="M132.7,0.5 L25.3,0.5 C22.8,0.5 21.2,2 19.9,4.2 L0.6,64.5 C-0.1,67.9 0.9,70.5 3.6,70.5 L112,70.5 C114.5,70.5 116.7,68.8 117.2,66.4 L137,4.8 C137.5,2.3 135.2,0.5 132.7,0.5 L132.7,0.5 Z"></path>
                </g>
                <g transform="translate(44.424400, 23.482200)" >
                    <text textAnchor="middle" class="t">
                        <tspan x="15" y="11"></tspan>
                    </text>
                    <text textAnchor="middle" class="t">
                        <tspan x="15" y="25.4"></tspan>
                    </text>
                </g>
            </g>
            <g id="1STMZ16" transform="translate(500.000000, 425.000000)">
                <g class="g">
                    <path d="M133.1,0.5 L25.8,0.5 C23.3,0.5 21.7,2 20.4,4.2 L1.1,65.5 C0.4,68.9 1.4,71.5 4.1,71.5 L112.4,71.5 C114.9,71.5 117.1,69.8 117.6,67.4 L137.4,4.8 C137.9,2.3 135.6,0.5 133.1,0.5 L133.1,0.5 Z"></path>
                </g>
                <g transform="translate(47.238200, 22.779200)" >
                    <text textAnchor="middle" class="t">
                        <tspan x="15" y="11"></tspan>
                    </text>
                    <text textAnchor="middle" class="t">
                        <tspan x="15" y="25.4"></tspan>
                    </text>
                </g>
            </g>
            <g id="1STMZ15" transform="translate(525.000000, 345.000000)">
                <g class="g">
                    <path d="M132.9,0 L25.6,0 C23.1,0 21.5,1.5 20.2,3.7 L1,64 C0.3,67.4 1.3,70 4,70 L112.3,70 C114.8,70 117,68.3 117.5,65.9 L137.3,4.3 C137.7,1.8 135.4,0 132.9,0 L132.9,0 Z"></path>
                </g>
                <g transform="translate(47.033000, 21.906400)" >
                    <text textAnchor="middle" class="t">
                        <tspan x="15" y="11"></tspan>
                    </text>
                    <text textAnchor="middle" class="t">
                        <tspan x="15" y="25.4"></tspan>
                    </text>
                </g>
            </g>
            <g id="1STMZ14" transform="translate(548.000000, 263.000000)">
                <g class="g">
                    <path d="M113,0 L4,0 C1.5,0 0,2.5 0,5 L0,65 C0,67.5 1.5,70 4,70 L112,70 C114.5,70 117,67.5 117,65 L117,4.7 C117.1,2.2 115.5,0 113,0 L113,0 Z"></path>
                </g>
                <g transform="translate(38.665500, 20.828900)" >
                    <text textAnchor="middle" class="t">
                        <tspan x="15" y="11"></tspan>
                    </text>
                    <text textAnchor="middle" class="t">
                        <tspan x="15" y="25.4"></tspan>
                    </text>
                </g>
            </g>
            <g id="1STMZ13" transform="translate(526.000000, 182.000000)">
                <g class="g">
                    <path d="M137.2,65.8 L117.4,4.2 C116.9,1.7 114.7,0.1 112.2,0.1 L4,0.1 C1.3,0.1 0.3,2.7 1,6.1 L20.3,66.4 C21.6,68.6 23.2,70.1 25.7,70.1 L133,70.1 C135.4,70 137.7,68.2 137.2,65.8 L137.2,65.8 Z"></path>
                </g>
                <g transform="translate(49.529100, 20.587900)" >
                    <text textAnchor="middle" class="t">
                        <tspan x="15" y="11"></tspan>
                    </text>
                    <text textAnchor="middle" class="t">
                        <tspan x="15" y="25.4"></tspan>
                    </text>
                </g>
            </g>
            <g id="1STMZ12" transform="translate(502.000000, 102.000000)">
                <g class="g">
                    <path d="M137.4,66.3 L117.6,4.7 C117.1,2.2 114.9,0.6 112.4,0.6 L4.2,0.6 C1.5,0.6 0.5,3.2 1.2,6.6 L20.5,66.9 C21.8,69.1 23.4,70.6 25.9,70.6 L133.2,70.6 C135.6,70.5 137.9,68.7 137.4,66.3 L137.4,66.3 Z"></path>
                </g>
                <g transform="translate(50.033100, 21.154100)" >
                    <text textAnchor="middle" class="t">
                        <tspan x="15" y="11"></tspan>
                    </text>
                    <text textAnchor="middle" class="t">
                        <tspan x="15" y="25.4"></tspan>
                    </text>
                </g>
            </g>
            <g id="1STMZ11" transform="translate(477.000000, 23.000000)">
                <g class="g">
                    <path d="M137,65.8 L117.2,4.2 C116.7,1.7 114.5,0.1 112,0.1 L3.7,0.1 C1,0.1 2.04281037e-14,2.7 0.7,6.1 L20,66.3 C21.3,68.5 22.9,70 25.4,70 L132.7,70 C135.2,70 137.5,68.2 137,65.8 L137,65.8 Z"></path>
                </g>
                <g transform="translate(49.657800, 21.436100)" >
                    <text textAnchor="middle" class="t">
                        <tspan x="15" y="11"></tspan>
                    </text>
                    <text textAnchor="middle" class="t">
                        <tspan x="15" y="25.4"></tspan>
                    </text>
                </g>
            </g>
            <g id="2NDMZ17" transform="translate(614.000000, 506.000000)">
                <g class="g">
                    <path d="M132.4,0.5 L25.1,0.5 C22.6,0.5 21,2 19.7,4.2 L0.4,64.5 C-0.3,67.9 0.7,70.5 3.4,70.5 L111.7,70.5 C114.2,70.5 116.4,68.8 116.9,66.4 L136.7,4.8 C137.2,2.3 134.9,0.5 132.4,0.5 L132.4,0.5 Z"></path>
                </g>
                <g transform="translate(45.126300, 23.482400)" >
                    <text textAnchor="middle" class="t">
                        <tspan x="15" y="11"></tspan>
                    </text>
                    <text textAnchor="middle" class="t">
                        <tspan x="15" y="25.4"></tspan>
                    </text>
                </g>
            </g>
            <g id="2NDMZ16" transform="translate(637.000000, 425.000000)">
                <g class="g">
                    <path d="M132.9,0.5 L25.6,0.5 C23.1,0.5 21.5,2 20.2,4.2 L0.9,65.5 C0.2,68.9 1.2,71.5 3.9,71.5 L112.2,71.5 C114.7,71.5 116.9,69.8 117.4,67.4 L137.2,4.8 C137.7,2.3 135.4,0.5 132.9,0.5 L132.9,0.5 Z"></path>
                </g>
                <g transform="translate(46.841500, 22.779100)" >
                    <text textAnchor="middle" class="t">
                        <tspan x="15" y="11"></tspan>
                    </text>
                    <text textAnchor="middle" class="t">
                        <tspan x="15" y="25.4"></tspan>
                    </text>
                </g>
            </g>
            <g id="2NDMZ15" transform="translate(662.000000, 345.000000)">
                <g class="g">
                    <path d="M133,0 L25.7,0 C23.2,0 21.6,1.5 20.3,3.7 L1.1,64 C0.4,67.4 1.4,70 4.1,70 L112.4,70 C114.9,70 117.1,68.3 117.6,65.9 L137.4,4.3 C137.8,1.8 135.5,0 133,0 L133,0 Z"></path>
                </g>
                <g transform="translate(43.143600, 21.906400)" >
                    <text textAnchor="middle" class="t">
                        <tspan x="15" y="11"></tspan>
                    </text>
                    <text textAnchor="middle" class="t">
                        <tspan x="15" y="25.4"></tspan>
                    </text>
                </g>
            </g>
            <g id="2NDMZ14" transform="translate(685.000000, 263.000000)">
                <g class="g">
                    <path d="M112,0 L4,0 C1.5,0 0,2.5 0,5 L0,64 C0,66.5 2.5,70 5,70 L112,70 C114.5,70 117,67.8 117,65.2 L117,4.6 C117,2.2 114.5,0 112,0 L112,0 Z"></path>
                </g>
                <g transform="translate(39.959700, 20.829100)" >
                    <text textAnchor="middle" class="t">
                        <tspan x="15" y="11"></tspan>
                    </text>
                    <text textAnchor="middle" class="t">
                        <tspan x="15" y="25.4"></tspan>
                    </text>
                </g>
            </g>
            <g id="2NDMZ13" transform="translate(663.000000, 182.000000)">
                <g class="g">
                    <path d="M137.4,65.8 L117.6,4.2 C117.1,1.7 114.9,0.1 112.4,0.1 L4.1,0.1 C1.4,0.1 0.4,2.7 1.1,6.1 L20.4,66.4 C21.7,68.6 23.3,70.1 25.8,70.1 L133,70.1 C135.5,70 137.8,68.2 137.4,65.8 L137.4,65.8 Z"></path>
                </g>
                <g transform="translate(48.529400, 20.588100)" >
                    <text textAnchor="middle" class="t">
                        <tspan x="15" y="11"></tspan>
                    </text>
                    <text textAnchor="middle" class="t">
                        <tspan x="15" y="25.4"></tspan>
                    </text>
                </g>
            </g>
            <g id="2NDMZ12" transform="translate(639.000000, 102.000000)">
                <g class="g">
                    <path d="M137.2,66.3 L117.4,4.7 C116.9,2.2 114.7,0.6 112.2,0.6 L3.9,0.6 C1.2,0.6 0.2,3.2 0.9,6.6 L20.2,66.9 C21.5,69.1 23.1,70.6 25.6,70.6 L132.9,70.6 C135.4,70.5 137.7,68.7 137.2,66.3 L137.2,66.3 Z"></path>
                </g>
                <g transform="translate(49.291700, 21.154200)" >
                    <text textAnchor="middle" class="t">
                        <tspan x="15" y="11"></tspan>
                    </text>
                    <text textAnchor="middle" class="t">
                        <tspan x="15" y="25.4"></tspan>
                    </text>
                </g>
            </g>
            <g id="2NDMZ11" transform="translate(615.000000, 23.000000)">
                <g class="g">
                    <path d="M136.7,65.8 L117,4.1 C116.5,1.6 114.3,0 111.8,0 L3.5,0 C0.8,0 -0.2,2.6 0.5,6 L19.8,66.3 C21.1,68.5 22.7,70 25.2,70 L132.5,70 C134.9,70 137.2,68.2 136.7,65.8 L136.7,65.8 Z"></path>
                </g>
                <g transform="translate(50.008200, 21.436100)" >
                    <text textAnchor="middle" class="t">
                        <tspan x="15" y="11"></tspan>
                    </text>
                    <text textAnchor="middle" class="t">
                        <tspan x="15" y="25.4"></tspan>
                    </text>
                </g>
            </g>
            <g id="3RDMZ17" transform="translate(751.000000, 506.000000)">
                <g class="g">
                    <path d="M132.4,0.5 L25.1,0.5 C22.6,0.5 21,2 19.7,4.2 L0.4,64.5 C-0.3,67.9 0.7,70.5 3.4,70.5 L111.7,70.5 C114.2,70.5 116.4,68.8 116.9,66.4 L136.7,4.8 C137.2,2.3 134.9,0.5 132.4,0.5 L132.4,0.5 Z"></path>
                </g>
                <g transform="translate(67, 23.482500)" >
                    <text textAnchor="middle" class="t">
                        <tspan x="0" y="11"></tspan>
                    </text>
                    <text textAnchor="middle" class="t">
                        <tspan x="0" y="25.4"></tspan>
                    </text>
                </g>
            </g>
            <g id="3RDMZ16" transform="translate(774.000000, 425.000000)">
                <g class="g">
                    <path d="M132.9,0.5 L25.6,0.5 C23.1,0.5 21.5,2 20.2,4.2 L0.9,65.5 C0.2,68.9 1.2,71.5 3.9,71.5 L112.2,71.5 C114.7,71.5 116.9,69.8 117.4,67.4 L137.2,4.8 C137.7,2.3 135.4,0.5 132.9,0.5 L132.9,0.5 Z"></path>
                </g>
                <g transform="translate(67, 22.779200)" >
                    <text textAnchor="middle" class="t">
                        <tspan x="0" y="11"></tspan>
                    </text>
                    <text textAnchor="middle" class="t">
                        <tspan x="0" y="25.4"></tspan>
                    </text>
                </g>
            </g>
            <g id="3RDMZ15" transform="translate(801.000000, 345.000000)">
                <g class="g">
                    <path d="M132.4,0 L25.1,0 C22.6,0 21,1.5 19.7,3.7 L0.5,64 C-0.2,67.4 0.8,70 3.5,70 L111.8,70 C114.3,70 116.5,68.3 117,65.9 L136.8,4.3 C137.2,1.8 134.9,0 132.4,0 L132.4,0 Z"></path>
                </g>
                <g transform="translate(67, 21.906400)" >
                    <text textAnchor="middle" class="t">
                        <tspan x="0" y="11"></tspan>
                    </text>
                    <text textAnchor="middle" class="t">
                        <tspan x="0" y="25.4"></tspan>
                    </text>
                </g>
            </g>
            <g id="3RDMZ14" transform="translate(822.000000, 263.000000)">
                <path d="M4,70 C1.5,70 0,67.5 0,65 L0,5 C0,2.5 1.5,0 4,0 L112,0 C114.5,0 117,2.2 117,4.7 L117,65.3 C117,67.8 114.2,70.1 111.8,70.1 L4,70 L4,70 Z" class="g"></path>
                <g transform="translate(57, 20.828900)" >
                    <text textAnchor="middle" class="t">
                        <tspan x="0" y="11"></tspan>
                    </text>
                    <text textAnchor="middle" class="t">
                        <tspan x="0" y="25.4"></tspan>
                    </text>
                </g>
            </g>
            <g id="3RDMZ13" transform="translate(801.000000, 182.000000)">
                <g class="g">
                    <path d="M136.7,65.8 L117,4.1 C116.5,1.6 114.3,0 111.8,0 L3.5,0 C0.8,0 -0.2,2.6 0.5,6 L19.8,66.3 C21.1,68.5 22.7,70 25.2,70 L132.5,70 C134.9,70 137.2,68.2 136.7,65.8 L136.7,65.8 Z"></path>
                </g>
                <g transform="translate(67, 20.588100)" >
                    <text textAnchor="middle" class="t">
                        <tspan x="0" y="11"></tspan>
                    </text>
                    <text textAnchor="middle" class="t">
                        <tspan x="0" y="25.4"></tspan>
                    </text>
                </g>
            </g>
            <g id="3RDMZ12" transform="translate(774.000000, 102.000000)">
                <g id="Shape_3_copy_51_" class="g">
                    <path d="M137.2,66.3 L117.4,4.7 C116.9,2.2 114.7,0.6 112.2,0.6 L3.9,0.6 C1.2,0.6 0.2,3.2 0.9,6.6 L20.2,66.9 C21.5,69.1 23.1,70.6 25.6,70.6 L132.9,70.6 C135.4,70.5 137.7,68.7 137.2,66.3 L137.2,66.3 Z"></path>
                </g>
                <g transform="translate(67, 21.154000)" >
                    <text textAnchor="middle" class="t">
                        <tspan x="0" y="11"></tspan>
                    </text>
                    <text textAnchor="middle" class="t">
                        <tspan x="0" y="25.4"></tspan>
                    </text>
                </g>
            </g>
            <g id="3RDMZ11" transform="translate(751.000000, 23.000000)">
                <g id="Shape_3_copy_11_" class="g">
                    <path d="M136.7,65.8 L117,4.1 C116.5,1.6 114.3,0 111.8,0 L3.5,0 C0.8,0 -0.2,2.6 0.5,6 L19.8,66.3 C21.1,68.5 22.7,70 25.2,70 L132.5,70 C134.9,70 137.2,68.2 136.7,65.8 L136.7,65.8 Z"></path>
                </g>
                <g transform="translate(67, 21.436400)" >
                    <text textAnchor="middle" class="t">
                        <tspan x="0" y="11"></tspan>
                    </text>
                    <text textAnchor="middle" class="t">
                        <tspan x="0" y="25.4"></tspan>
                    </text>
                </g>
            </g>
            <g transform="translate(225.000000, 0.000000)" fontSize="11.1501" fontFamily="Helvetica" fill="#333333" fontWeight="normal">
                <text>
                    <tspan x="282.2755" y="11.9874">1st Mezzanine</tspan>
                </text>
                <text>
                    <tspan x="419.548" y="11.9874">2nd Mezzanine</tspan>
                </text>
                <text>
                    <tspan x="555.0427" y="11.9874">3rd Mezzanine</tspan>
                </text>
                <text>
                    <tspan x="0.8318" y="11.9872">Orchestra Seating</tspan>
                </text>
            </g>
        </g>
    </g>
</svg>
